<?xml version="1.0" encoding="UTF-8"?><svg id="Layer_2" xmlns="http://www.w3.org/2000/svg" xmlns:xlink="http://www.w3.org/1999/xlink" viewBox="0 0 218.56 309.11"><defs><style>.cls-1{fill:#efddc9;}.cls-2{font-family:Baloo, Baloo;font-size:29.18px;}.cls-2,.cls-3{fill:#2c2977;}.cls-4{letter-spacing:-.03em;}.cls-5{fill:#4951e2;}.cls-6{fill:#fbaa1a;}.cls-7{fill:#fe9da4;}.cls-8{fill:#fc6804;}.cls-9{clip-path:url(#clippath);}.cls-10{fill:none;}.cls-11{fill:#fd6d77;}.cls-12{fill:#fcfae3;}</style><clipPath id="clippath"><rect class="cls-10" width="218.56" height="309.11"/></clipPath></defs><g id="OBJECTS"><g><g class="cls-9"><g><rect class="cls-12" x="-19.46" y="-23.01" width="257.48" height="355.14" transform="translate(218.56 309.11) rotate(180)"/><rect class="cls-1" x="-19.46" y="162.41" width="257.48" height="169.71"/><path class="cls-7" d="M-19.46,161.41v1H238.02v-1h-41.91v-19.12h41.91v-1h-41.91v-19.12h41.91v-1h-41.91v-19.12h41.91v-1h-41.91v-19.12h41.91v-1h-41.91v-19.12h41.91v-1h-41.91v-19.12h41.91v-1h-41.91V21.58h41.91v-1h-41.91V1.46h41.91V.46h-41.91V-18.65h41.91v-1h-41.91v-3.36h-1v3.36h-20.58v-3.36h-1v3.36h-20.58v-3.36h-1v3.36h-20.58v-3.36h-1v3.36h-20.58v-3.36h-1v3.36h-20.58v-3.36h-1v3.36h-20.58v-3.36h-1v3.36h-20.58v-3.36h-1v3.36H23.45v-3.36h-1v3.36H-19.46v1H22.45V.46H-19.46V1.46H22.45V20.58H-19.46v1H22.45v19.12H-19.46v1H22.45v19.12H-19.46v1H22.45v19.12H-19.46v1H22.45v19.12H-19.46v1H22.45v19.12H-19.46v1H22.45v19.12H-19.46v1H22.45v19.12H-19.46ZM174.53-18.65h20.58V.46h-20.58V-18.65Zm0,20.12h20.58V20.58h-20.58V1.46Zm0,20.12h20.58v19.12h-20.58V21.58Zm0,20.12h20.58v19.12h-20.58v-19.12Zm0,20.12h20.58v19.12h-20.58v-19.12Zm0,20.12h20.58v19.12h-20.58v-19.12Zm0,20.12h20.58v19.12h-20.58v-19.12Zm0,20.12h20.58v19.12h-20.58v-19.12Zm0,20.12h20.58v19.12h-20.58v-19.12ZM152.95-18.65h20.58V.46h-20.58V-18.65Zm0,20.12h20.58V20.58h-20.58V1.46Zm0,20.12h20.58v19.12h-20.58V21.58Zm0,20.12h20.58v19.12h-20.58v-19.12Zm0,20.12h20.58v19.12h-20.58v-19.12Zm0,20.12h20.58v19.12h-20.58v-19.12Zm0,20.12h20.58v19.12h-20.58v-19.12Zm0,20.12h20.58v19.12h-20.58v-19.12Zm0,20.12h20.58v19.12h-20.58v-19.12ZM131.36-18.65h20.58V.46h-20.58V-18.65Zm0,20.12h20.58V20.58h-20.58V1.46Zm0,20.12h20.58v19.12h-20.58V21.58Zm0,20.12h20.58v19.12h-20.58v-19.12Zm0,20.12h20.58v19.12h-20.58v-19.12Zm0,20.12h20.58v19.12h-20.58v-19.12Zm0,20.12h20.58v19.12h-20.58v-19.12Zm0,20.12h20.58v19.12h-20.58v-19.12Zm0,20.12h20.58v19.12h-20.58v-19.12ZM109.78-18.65h20.58V.46h-20.58V-18.65Zm0,20.12h20.58V20.58h-20.58V1.46Zm0,20.12h20.58v19.12h-20.58V21.58Zm0,20.12h20.58v19.12h-20.58v-19.12Zm0,20.12h20.58v19.12h-20.58v-19.12Zm0,20.12h20.58v19.12h-20.58v-19.12Zm0,20.12h20.58v19.12h-20.58v-19.12Zm0,20.12h20.58v19.12h-20.58v-19.12Zm0,20.12h20.58v19.12h-20.58v-19.12ZM88.2-18.65h20.58V.46h-20.58V-18.65Zm0,20.12h20.58V20.58h-20.58V1.46Zm0,20.12h20.58v19.12h-20.58V21.58Zm0,20.12h20.58v19.12h-20.58v-19.12Zm0,20.12h20.58v19.12h-20.58v-19.12Zm0,20.12h20.58v19.12h-20.58v-19.12Zm0,20.12h20.58v19.12h-20.58v-19.12Zm0,20.12h20.58v19.12h-20.58v-19.12Zm0,20.12h20.58v19.12h-20.58v-19.12ZM66.62-18.65h20.58V.46h-20.58V-18.65Zm0,20.12h20.58V20.58h-20.58V1.46Zm0,20.12h20.58v19.12h-20.58V21.58Zm0,20.12h20.58v19.12h-20.58v-19.12Zm0,20.12h20.58v19.12h-20.58v-19.12Zm0,20.12h20.58v19.12h-20.58v-19.12Zm0,20.12h20.58v19.12h-20.58v-19.12Zm0,20.12h20.58v19.12h-20.58v-19.12Zm0,20.12h20.58v19.12h-20.58v-19.12ZM45.04-18.65h20.58V.46h-20.58V-18.65Zm0,20.12h20.58V20.58h-20.58V1.46Zm0,20.12h20.58v19.12h-20.58V21.58Zm0,20.12h20.58v19.12h-20.58v-19.12Zm0,20.12h20.58v19.12h-20.58v-19.12Zm0,20.12h20.58v19.12h-20.58v-19.12Zm0,20.12h20.58v19.12h-20.58v-19.12Zm0,20.12h20.58v19.12h-20.58v-19.12Zm0,20.12h20.58v19.12h-20.58v-19.12ZM23.45-18.65h20.58V.46H23.45V-18.65Zm0,20.12h20.58V20.58H23.45V1.46Zm0,20.12h20.58v19.12H23.45V21.58Zm0,20.12h20.58v19.12H23.45v-19.12Zm0,20.12h20.58v19.12H23.45v-19.12Zm0,20.12h20.58v19.12H23.45v-19.12Zm0,20.12h20.58v19.12H23.45v-19.12Zm0,20.12h20.58v19.12H23.45v-19.12Zm0,20.12h20.58v19.12H23.45v-19.12Z"/></g><g><g><path class="cls-7" d="M69.67,287.24c-.13-.43-.28-.86-.42-1.3l-55.98,55.98c.43,.14,.86,.29,1.3,.42l55.1-55.1Z"/><path class="cls-7" d="M71.09,293.81c-.07-.49-.15-.99-.24-1.48l-51.18,51.18c.49,.08,.98,.17,1.48,.24l49.94-49.94Z"/><path class="cls-7" d="M28.75,344.14l42.72-42.72c.02-.58,.03-1.16,.03-1.74l-44.5,44.5c.58,0,1.16-.01,1.74-.03Z"/><path class="cls-7" d="M70.17,310.71c.18-.73,.35-1.47,.5-2.21l-34.83,34.83c.74-.15,1.48-.31,2.21-.5l32.12-32.12Z"/><path class="cls-7" d="M67.49,281.43c-.18-.39-.37-.77-.56-1.15L7.61,339.59c.38,.19,.77,.38,1.15,.56l58.72-58.72Z"/><path class="cls-7" d="M64.67,276.25c-.22-.35-.44-.7-.67-1.04L2.55,336.66c.34,.23,.69,.45,1.04,.67l61.08-61.08Z"/><path class="cls-7" d="M-1.96,333.18c.3,.27,.61,.53,.92,.79l62.34-62.34c-.26-.31-.52-.62-.79-.92L-1.96,333.18Z"/><path class="cls-7" d="M36.39,256.58c-.48-.1-.96-.19-1.44-.28l-51.31,51.31c.08,.48,.18,.96,.28,1.44l52.47-52.47Z"/><path class="cls-7" d="M57.42,267.52c-.3-.28-.59-.55-.9-.82L-5.96,329.19c.27,.3,.54,.6,.82,.9l62.57-62.57Z"/><path class="cls-7" d="M20.91,256.07c-.69,.1-1.37,.21-2.06,.35l-35.1,35.1c-.13,.68-.25,1.37-.35,2.06l37.51-37.51Z"/><path class="cls-7" d="M53.03,263.91c-.33-.24-.67-.47-1.01-.7l-61.48,61.48c.23,.34,.46,.68,.7,1.01l61.78-61.78Z"/><path class="cls-7" d="M42.59,258.37c-.42-.16-.84-.31-1.27-.45l-56.07,56.07c.14,.42,.29,.85,.45,1.27l56.89-56.89Z"/><path class="cls-7" d="M-17.04,300.3c0,.56,.01,1.12,.04,1.67l46.3-46.3c-.56-.03-1.12-.03-1.67-.04l-44.67,44.67Z"/><path class="cls-7" d="M-11.92,279.19c-.57,1.07-1.07,2.16-1.55,3.26l23.26-23.26c-1.1,.47-2.19,.98-3.26,1.55l-18.45,18.45Z"/><path class="cls-7" d="M48.11,260.84c-.38-.2-.75-.39-1.13-.58l-59.38,59.38c.19,.38,.38,.76,.58,1.13l59.93-59.93Z"/></g><g><g><rect class="cls-6" x="133.56" y="275.96" width="2.65" height="13.49"/><rect class="cls-6" x="128.15" y="281.38" width="13.49" height="2.65"/></g><g><rect class="cls-6" x="151.62" y="275.96" width="2.65" height="13.49"/><rect class="cls-6" x="146.2" y="281.38" width="13.49" height="2.65"/></g></g><g><path class="cls-3" d="M138.3,74.68c-.13-.43-.28-.86-.42-1.3l-55.98,55.98c.43,.14,.86,.29,1.3,.42l55.1-55.1Z"/><path class="cls-3" d="M139.72,81.26c-.07-.49-.15-.99-.24-1.48l-51.18,51.18c.49,.08,.98,.17,1.48,.24l49.94-49.94Z"/><path class="cls-3" d="M97.38,131.58l42.72-42.72c.02-.58,.03-1.16,.03-1.74l-44.5,44.5c.58,0,1.16-.01,1.74-.03Z"/><path class="cls-3" d="M138.8,98.16c.18-.73,.35-1.47,.5-2.21l-34.83,34.83c.74-.15,1.48-.31,2.21-.5l32.12-32.12Z"/><path class="cls-3" d="M131.92,113.03c1.05-1.48,2.01-3,2.86-4.57l-17.81,17.81c1.57-.85,3.1-1.8,4.57-2.86l10.37-10.37Z"/><path class="cls-3" d="M136.11,68.87c-.18-.39-.37-.77-.56-1.15l-59.31,59.31c.38,.19,.77,.38,1.15,.56l58.72-58.72Z"/><path class="cls-3" d="M133.3,63.7c-.22-.35-.44-.7-.67-1.04l-61.45,61.45c.34,.23,.69,.45,1.04,.67l61.08-61.08Z"/><path class="cls-3" d="M66.67,120.62c.3,.27,.61,.53,.92,.79l62.34-62.34c-.26-.31-.52-.62-.79-.92l-62.47,62.47Z"/><path class="cls-3" d="M105.01,44.02c-.48-.1-.96-.19-1.44-.28l-51.31,51.31c.08,.48,.18,.96,.28,1.44l52.47-52.47Z"/><path class="cls-3" d="M126.05,54.96c-.3-.28-.59-.55-.9-.82l-62.49,62.49c.27,.3,.54,.6,.82,.9l62.57-62.57Z"/><path class="cls-3" d="M89.54,43.51c-.69,.1-1.37,.21-2.06,.35l-35.1,35.1c-.13,.68-.25,1.37-.35,2.06l37.51-37.51Z"/><path class="cls-3" d="M121.66,51.36c-.33-.24-.67-.47-1.01-.7l-61.48,61.48c.23,.34,.46,.68,.7,1.01l61.78-61.78Z"/><path class="cls-3" d="M111.22,45.81c-.42-.16-.84-.31-1.27-.45l-56.07,56.07c.14,.42,.29,.85,.45,1.27l56.89-56.89Z"/><path class="cls-3" d="M51.59,87.74c0,.56,.01,1.12,.04,1.67l46.3-46.3c-.56-.03-1.12-.03-1.67-.04l-44.67,44.67Z"/><path class="cls-3" d="M56.71,66.64c-.57,1.07-1.07,2.16-1.55,3.26l23.26-23.26c-1.1,.47-2.19,.98-3.26,1.55l-18.45,18.45Z"/><path class="cls-3" d="M116.74,48.29c-.38-.2-.75-.39-1.13-.58l-59.38,59.38c.19,.38,.38,.76,.58,1.13l59.93-59.93Z"/></g><g><path class="cls-8" d="M191.32,95.38c-12.31-12.31-12.31-32.33,0-44.64,12.31-12.31,32.33-12.31,44.64,0l20.51-20.51c-23.61-23.61-62.04-23.61-85.65,0-23.61,23.61-23.61,62.04,0,85.65l20.51-20.51Z"/><path class="cls-6" d="M188.83,100.87c-12.31-12.31-12.31-32.33,0-44.64,12.31-12.31,32.33-12.31,44.64,0l20.51-20.51c-23.61-23.61-62.04-23.61-85.65,0-23.61,23.61-23.61,62.04,0,85.65l20.51-20.51Z"/></g><g><path class="cls-11" d="M140.6,179.59l-8.78-8.78,8.78-8.78,8.78,8.78-8.78,8.78Zm-5.96-8.78l5.96,5.96,5.96-5.96-5.96-5.96-5.96,5.96Z"/><path class="cls-11" d="M140.6,171.48l-8.78-8.78,8.78-8.78,8.78,8.78-8.78,8.78Zm-5.96-8.78l5.96,5.96,5.96-5.96-5.96-5.96-5.96,5.96Z"/></g><g><path class="cls-11" d="M13.42,246.86l-8.78-8.78,8.78-8.78,8.78,8.78-8.78,8.78Zm-5.96-8.78l5.96,5.96,5.96-5.96-5.96-5.96-5.96,5.96Z"/><path class="cls-11" d="M13.42,238.75l-8.78-8.78,8.78-8.78,8.78,8.78-8.78,8.78Zm-5.96-8.78l5.96,5.96,5.96-5.96-5.96-5.96-5.96,5.96Z"/></g><g><rect class="cls-5" x="196.12" y="243.93" width="42.2" height="42.2" transform="translate(251.02 -75.98) rotate(45)"/><path class="cls-3" d="M205.93,296.28l-31.25-31.25,31.25-31.25,31.25,31.25-31.25,31.25Zm-28.43-31.25l28.43,28.42,28.43-28.42-28.43-28.43-28.43,28.43Z"/></g><circle class="cls-5" cx="82.03" cy="63.62" r="31.36" transform="translate(1.26 128.83) rotate(-76.72)"/><g><circle class="cls-6" cx="50.97" cy="6.05" r="2.22"/><circle class="cls-6" cx="61.08" cy="6.05" r="2.22"/><circle class="cls-6" cx="71.19" cy="6.05" r="2.22"/><circle class="cls-6" cx="81.29" cy="6.05" r="2.22"/><circle class="cls-6" cx="91.4" cy="6.05" r="2.22"/><circle class="cls-6" cx="101.5" cy="6.05" r="2.22"/><circle class="cls-6" cx="50.97" cy="15.79" r="2.22"/><circle class="cls-6" cx="61.08" cy="15.79" r="2.22"/><circle class="cls-6" cx="71.19" cy="15.79" r="2.22"/><circle class="cls-6" cx="81.29" cy="15.79" r="2.22"/><circle class="cls-6" cx="91.4" cy="15.79" r="2.22"/><circle class="cls-6" cx="101.5" cy="15.79" r="2.22"/></g><g><circle class="cls-3" cx="180.74" cy="156.78" r="2.22"/><circle class="cls-3" cx="180.74" cy="166.52" r="2.22"/><circle class="cls-3" cx="190.84" cy="156.78" r="2.22"/><circle class="cls-3" cx="190.84" cy="166.52" r="2.22"/><circle class="cls-3" cx="200.95" cy="156.78" r="2.22"/><circle class="cls-3" cx="200.95" cy="166.52" r="2.22"/><circle class="cls-3" cx="211.05" cy="156.78" r="2.22"/><circle class="cls-3" cx="211.05" cy="166.52" r="2.22"/><path class="cls-3" d="M182.96,176.27c0,1.23-1,2.22-2.22,2.22s-2.22-1-2.22-2.22,1-2.22,2.22-2.22,2.22,1,2.22,2.22Z"/><path class="cls-3" d="M193.07,176.27c0,1.23-1,2.22-2.22,2.22s-2.22-1-2.22-2.22,1-2.22,2.22-2.22,2.22,1,2.22,2.22Z"/><path class="cls-3" d="M203.17,176.27c0,1.23-1,2.22-2.22,2.22s-2.22-1-2.22-2.22,1-2.22,2.22-2.22,2.22,1,2.22,2.22Z"/><path class="cls-3" d="M213.28,176.27c0,1.23-1,2.22-2.22,2.22s-2.22-1-2.22-2.22,1-2.22,2.22-2.22,2.22,1,2.22,2.22Z"/></g><g><path class="cls-5" d="M-16.49,281.95c3.01-3.01,7.91-3.01,10.92,0l2.17,2.17c3.79,3.79,9.96,3.79,13.75,0l2.17-2.17c3.01-3.01,7.91-3.01,10.92,0l2.17,2.17c3.79,3.79,9.96,3.79,13.75,0l2.17-2.17c3.01-3.01,7.91-3.01,10.92,0l2.17,2.17c3.79,3.79,9.96,3.79,13.75,0l2.17-2.17c3.01-3.01,7.91-3.01,10.92,0l2.17,2.17c3.79,3.79,9.96,3.79,13.75,0l2.17-2.17c1.52-1.52,3.51-2.27,5.5-2.26v-2c-2.5-.01-5.01,.94-6.92,2.84l-2.17,2.17c-3.01,3.01-7.91,3.01-10.92,0l-2.17-2.17c-3.79-3.79-9.96-3.79-13.75,0l-2.17,2.17c-3.01,3.01-7.91,3.01-10.92,0l-2.17-2.17c-3.79-3.79-9.96-3.79-13.75,0l-2.17,2.17c-3.01,3.01-7.91,3.01-10.92,0l-2.17-2.17c-3.79-3.79-9.96-3.79-13.75,0l-2.17,2.17c-3.01,3.01-7.91,3.01-10.92,0l-2.17-2.17c-3.79-3.79-9.96-3.79-13.75,0l-8.34,8.34,1.41,1.41,8.34-8.34Z"/><path class="cls-5" d="M105.05,293.6c-2.5-.01-5.01,.93-6.92,2.84l-2.17,2.17c-3.01,3.01-7.91,3.01-10.92,0l-2.17-2.17c-3.79-3.79-9.96-3.79-13.75,0l-2.17,2.17c-3.01,3.01-7.91,3.01-10.92,0l-2.17-2.17c-3.79-3.79-9.96-3.79-13.75,0l-2.17,2.17c-3.01,3.01-7.91,3.01-10.92,0l-2.17-2.17c-3.79-3.79-9.96-3.79-13.75,0l-2.17,2.17c-3.01,3.01-7.91,3.01-10.92,0l-2.17-2.17c-3.79-3.79-9.96-3.79-13.75,0l-8.34,8.34,1.41,1.41,8.34-8.34c3.01-3.01,7.91-3.01,10.92,0l2.17,2.17c3.79,3.79,9.96,3.79,13.75,0l2.17-2.17c3.01-3.01,7.91-3.01,10.92,0l2.17,2.17c3.79,3.79,9.96,3.79,13.75,0l2.17-2.17c3.01-3.01,7.91-3.01,10.92,0l2.17,2.17c3.79,3.79,9.96,3.79,13.75,0l2.17-2.17c3.01-3.01,7.91-3.01,10.92,0l2.17,2.17c3.79,3.79,9.96,3.79,13.75,0l2.17-2.17c1.52-1.52,3.51-2.27,5.5-2.26v-2Z"/><path class="cls-5" d="M-16.49,289.9c3.01-3.01,7.91-3.01,10.92,0l2.17,2.17c3.79,3.79,9.96,3.79,13.75,0l2.17-2.17c3.01-3.01,7.91-3.01,10.92,0l2.17,2.17c3.79,3.79,9.96,3.79,13.75,0l2.17-2.17c3.01-3.01,7.91-3.01,10.92,0l2.17,2.17c3.79,3.79,9.96,3.79,13.75,0l2.17-2.17c3.01-3.01,7.91-3.01,10.92,0l2.17,2.17c3.79,3.79,9.96,3.79,13.75,0l2.17-2.17c1.52-1.52,3.51-2.27,5.5-2.26v-2c-2.5-.01-5.01,.94-6.92,2.84l-2.17,2.17c-3.01,3.01-7.91,3.01-10.92,0l-2.17-2.17c-3.79-3.79-9.96-3.79-13.75,0l-2.17,2.17c-3.01,3.01-7.91,3.01-10.92,0l-2.17-2.17c-3.79-3.79-9.96-3.79-13.75,0l-2.17,2.17c-3.01,3.01-7.91,3.01-10.92,0l-2.17-2.17c-3.79-3.79-9.96-3.79-13.75,0l-2.17,2.17c-3.01,3.01-7.91,3.01-10.92,0l-2.17-2.17c-3.79-3.79-9.96-3.79-13.75,0l-8.34,8.34,1.41,1.41,8.34-8.34Z"/></g><g><path class="cls-8" d="M29.71-46.24c3.01,3.01,3.01,7.91,0,10.92l-2.17,2.17c-3.79,3.79-3.79,9.96,0,13.75l2.17,2.17c3.01,3.01,3.01,7.91,0,10.92l-2.17,2.17c-3.79,3.79-3.79,9.96,0,13.75l2.17,2.17c3.01,3.01,3.01,7.91,0,10.92l-2.17,2.17c-3.79,3.79-3.79,9.96,0,13.75l2.17,2.17c3.01,3.01,3.01,7.91,0,10.92l-2.17,2.17c-3.79,3.79-3.79,9.96,0,13.75l2.17,2.17c1.52,1.52,2.27,3.51,2.26,5.5h2c.01-2.5-.94-5.01-2.84-6.92l-2.17-2.17c-3.01-3.01-3.01-7.91,0-10.92l2.17-2.17c3.79-3.79,3.79-9.96,0-13.75l-2.17-2.17c-3.01-3.01-3.01-7.91,0-10.92l2.17-2.17c3.79-3.79,3.79-9.96,0-13.75l-2.17-2.17c-3.01-3.01-3.01-7.91,0-10.92l2.17-2.17c3.79-3.79,3.79-9.96,0-13.75l-2.17-2.17c-3.01-3.01-3.01-7.91,0-10.92l2.17-2.17c3.79-3.79,3.79-9.96,0-13.75l-8.34-8.34-1.41,1.41,8.34,8.34Z"/><path class="cls-8" d="M18.06,75.3c.01-2.5-.94-5.01-2.84-6.92l-2.17-2.17c-3.01-3.01-3.01-7.91,0-10.92l2.17-2.17c3.79-3.79,3.79-9.96,0-13.75l-2.17-2.17c-3.01-3.01-3.01-7.91,0-10.92l2.17-2.17c3.79-3.79,3.79-9.96,0-13.75l-2.17-2.17c-3.01-3.01-3.01-7.91,0-10.92l2.17-2.17c3.79-3.79,3.79-9.96,0-13.75l-2.17-2.17c-3.01-3.01-3.01-7.91,0-10.92l2.17-2.17c3.79-3.79,3.79-9.96,0-13.75l-8.34-8.34-1.41,1.41,8.34,8.34c3.01,3.01,3.01,7.91,0,10.92l-2.17,2.17c-3.79,3.79-3.79,9.96,0,13.75l2.17,2.17c3.01,3.01,3.01,7.91,0,10.92l-2.17,2.17c-3.79,3.79-3.79,9.96,0,13.75l2.17,2.17c3.01,3.01,3.01,7.91,0,10.92l-2.17,2.17c-3.79,3.79-3.79,9.96,0,13.75l2.17,2.17c3.01,3.01,3.01,7.91,0,10.92l-2.17,2.17c-3.79,3.79-3.79,9.96,0,13.75l2.17,2.17c1.52,1.52,2.27,3.51,2.26,5.5h2Z"/><path class="cls-8" d="M21.76-46.24c3.01,3.01,3.01,7.91,0,10.92l-2.17,2.17c-3.79,3.79-3.79,9.96,0,13.75l2.17,2.17c3.01,3.01,3.01,7.91,0,10.92l-2.17,2.17c-3.79,3.79-3.79,9.96,0,13.75l2.17,2.17c3.01,3.01,3.01,7.91,0,10.92l-2.17,2.17c-3.79,3.79-3.79,9.96,0,13.75l2.17,2.17c3.01,3.01,3.01,7.91,0,10.92l-2.17,2.17c-3.79,3.79-3.79,9.96,0,13.75l2.17,2.17c1.52,1.52,2.27,3.51,2.26,5.5h2c.01-2.5-.93-5.01-2.84-6.92l-2.17-2.17c-3.01-3.01-3.01-7.91,0-10.92l2.17-2.17c3.79-3.79,3.79-9.96,0-13.75l-2.17-2.17c-3.01-3.01-3.01-7.91,0-10.92l2.17-2.17c3.79-3.79,3.79-9.96,0-13.75l-2.17-2.17c-3.01-3.01-3.01-7.91,0-10.92l2.17-2.17c3.79-3.79,3.79-9.96,0-13.75l-2.17-2.17c-3.01-3.01-3.01-7.91,0-10.92l2.17-2.17c3.79-3.79,3.79-9.96,0-13.75l-8.34-8.34-1.41,1.41,8.34,8.34Z"/></g><g><g><rect class="cls-11" x="140.6" y="9.65" width="2.12" height="10.79"/><rect class="cls-11" x="136.26" y="13.99" width="10.79" height="2.12"/></g><g><rect class="cls-11" x="140.6" y="24.4" width="2.12" height="10.79"/><rect class="cls-11" x="136.26" y="28.73" width="10.79" height="2.12"/></g><g><rect class="cls-11" x="140.6" y="39.15" width="2.12" height="10.79"/><rect class="cls-11" x="136.26" y="43.48" width="10.79" height="2.12"/></g></g><g><path class="cls-11" d="M-3.91,116.38c17.4,0,31.56,14.16,31.56,31.56s-14.16,31.56-31.56,31.56v29c33.4,0,60.56-27.17,60.56-60.56S29.48,87.38-3.91,87.38v29Z"/><path class="cls-7" d="M-6.83,120.29c17.4,0,31.56,14.16,31.56,31.56s-14.16,31.56-31.56,31.56v29c33.4,0,60.56-27.17,60.56-60.56S26.57,91.29-6.83,91.29v29Z"/></g></g></g><g><text class="cls-2" transform="translate(86.83 224.83)"><tspan x="0" y="0">404</tspan></text><text class="cls-2" transform="translate(44.73 247.46)"><tspan x="0" y="0">Not </tspan><tspan class="cls-4" x="51.06" y="0">F</tspan><tspan x="64.36" y="0">ound</tspan></text></g></g></g></svg>