<?xml version="1.0" encoding="UTF-8"?><svg xmlns="http://www.w3.org/2000/svg" viewBox="0 0 1729.02 944.56"><defs><style>.cls-1{fill:#fff;}.cls-2{isolation:isolate;}.cls-3{mix-blend-mode:screen;opacity:.57;}.cls-4{fill:#e6e9ed;}.cls-5{fill:#8fe4db;}.cls-6{fill:#67c9bd;}.cls-7{fill:#ffce00;}.cls-8{fill:#ffad12;}.cls-9{fill:#c1b6ba;}.cls-10{fill:#aa9ba1;}.cls-11{fill:#841918;}</style></defs><g class="cls-2"><g id="Layer_2"><g id="Layer_1-2"><g><g><path class="cls-1" d="M289.88,404.9c-68.05,36.25-86.37,60.5-102.62,135.87-36.25-68.05-60.5-86.37-135.87-102.62,68.05-36.25,86.37-60.5,102.62-135.87,36.25,68.05,60.5,86.37,135.87,102.62Z"/><path class="cls-1" d="M83.39,253.05c-23.79,12.67-30.2,21.15-35.88,47.51-12.67-23.79-21.15-30.2-47.51-35.88,23.79-12.67,30.2-21.15,35.88-47.51,12.67,23.79,21.15,30.2,47.51,35.88Z"/><path class="cls-1" d="M228.98,154.11c-27.36,14.58-34.73,24.33-41.26,54.63-14.58-27.36-24.33-34.73-54.63-41.26,27.36-14.58,34.73-24.33,41.26-54.63,14.58,27.36,24.33,34.73,54.63,41.26Z"/></g><g><path class="cls-1" d="M1489.47,534.98c75.44-15.93,99.77-34.14,136.31-102.03,15.93,75.44,34.14,99.77,102.03,136.31-75.44,15.93-99.77,34.14-136.31,102.03-15.93-75.44-34.14-99.77-102.03-136.31Z"/><path class="cls-1" d="M1645.68,738.2c26.38-5.57,34.88-11.94,47.66-35.68,5.57,26.38,11.94,34.88,35.68,47.66-26.38,5.57-34.88,11.94-47.66,35.68-5.57-26.38-11.94-34.88-35.68-47.66Z"/><path class="cls-1" d="M1478.34,792.81c30.34-6.4,40.12-13.73,54.81-41.03,6.4,30.34,13.73,40.12,41.03,54.81-30.34,6.4-40.12,13.73-54.81,41.03-6.4-30.34-13.73-40.12-41.03-54.81Z"/></g><g><g><path class="cls-8" d="M375.54,367.06c-10.74-45.6-10.62-141.85-21.35-187.45,175.5-23.75,352.11-39.24,529.06-46.39,1.02-16.23,2.05-32.46,3.07-48.7,163.38,6.03,326.77,12.05,490.15,18.08,13.27,.49,29.21,2.68,34.68,14.78,2.93,6.5,1.77,14,.9,21.07-10.28,83.29,1.81,167.45-1.02,249.97"/><g><polygon class="cls-4" points="1353.57 519.52 450.37 537.48 438.79 205.08 1346.86 182.06 1353.57 519.52"/><path class="cls-11" d="M1353.73,527.82l-903.21,17.97c-4.54,.09-8.31-3.48-8.47-8.02l-11.57-332.4c-.08-2.21,.74-4.37,2.25-5.99,1.52-1.61,3.63-2.55,5.84-2.6l908.07-23.03c2.11-.22,4.35,.76,5.95,2.3,1.6,1.52,2.52,3.63,2.57,5.84l6.71,337.46c.09,4.59-3.55,8.38-8.14,8.47Zm-895.35,1.19l886.72-17.64-6.38-320.8-891.33,22.61,10.99,315.83Z"/></g><g><polygon class="cls-1" points="1381.62 572.93 478.41 590.89 466.84 258.49 1374.91 235.47 1381.62 572.93"/><path class="cls-11" d="M1381.78,581.23l-903.21,17.97c-4.54,.09-8.31-3.48-8.47-8.02l-11.57-332.4c-.08-2.21,.74-4.37,2.25-5.99,1.52-1.61,3.63-2.55,5.84-2.6l908.07-23.03s.03,0,.04,0c2.19-.04,4.32,.78,5.91,2.3,1.6,1.52,2.52,3.63,2.57,5.84l6.71,337.46c.09,4.59-3.55,8.38-8.14,8.47Zm-895.35,1.19l886.72-17.64-6.38-320.8-891.33,22.61,10.99,315.83Z"/></g><path class="cls-11" d="M1422.4,388.18c1.88-62.04-4.06-123.96-3.1-185.99,.23-14.86,.86-29.72,2.11-44.53,1.05-12.47,5.11-27.07,1.94-39.53-5.46-21.45-28.02-25.96-47.11-26.91-27.92-1.39-55.9-2.06-83.84-3.09-112.71-4.16-225.43-8.31-338.14-12.47-13.19-.49-26.48-1.48-39.68-1.46-13.35,.01-25.53,4.96-33.64,15.9-9.19,12.4-8.14,28.63-9.07,43.34,3.71-3.87,7.43-7.73,11.14-11.6-103.96,4.25-207.79,11.28-311.36,21.22-51.32,4.93-102.56,10.55-153.73,16.88-18.92,2.34-43.05,1.25-57.89,15.26-13.25,12.5-13.81,27.94-12.08,44.92,4.59,45.26,6.31,91.44,16.39,135.94,.8,3.54,4.48,7.2,8.1,7.78,59.62,9.63,119.23,19.27,178.85,28.9,94.93,15.34,189.86,30.68,284.79,46.02,21.32,3.44,42.64,7.53,64.05,10.35,17.78,2.34,36.12,2.17,54.01,3.11,94.87,4.94,189.75,9.89,284.62,14.83l51.56,2.69c7.71,.4,16.32,1.97,24.04,1.25,10.85-1.01,21.75-13.48,29.93-19.77,18.88-14.52,37.76-29.04,56.64-43.56,3.99-3.07,7.99-6.14,11.98-9.21,11.48-8.83-.24-28.35-11.87-19.41-12.78,9.83-25.55,19.65-38.33,29.48-16.49,12.68-35.7,24.41-50.62,38.92-2.95,2.87-3.87,1-.38,1.65,10.25,1.91,.69-1.22,1.4-.88-2.17-1.05-6.9-.36-9.27-.48-13.75-.72-27.51-1.43-41.26-2.15-94.23-4.91-188.45-9.82-282.68-14.73-25.15-1.31-50.32-2.47-75.47-3.93-2.34-.14,4.75,.73,.5,.02-2.72-.45-5.44-.88-8.16-1.32-11.53-1.86-23.06-3.73-34.59-5.59-90.45-14.62-180.91-29.23-271.36-43.85-44.95-7.26-89.9-14.53-134.85-21.79-15.95-2.58-31.9-5.15-47.85-7.73-8.53-1.38-17.91-4.15-26.57-4.29-1.14-.02-2.36-.38-3.5-.57,2.7,2.59,5.4,5.19,8.1,7.78-5.05-22.26-7.4-45.03-9.64-67.72-2.37-24.01-6.41-48.77-6.95-72.87-.31-14.09,7.53-20.86,20.92-22.78,14.84-2.13,29.76-3.77,44.64-5.57,29.78-3.59,59.58-6.95,89.42-10.07,119.33-12.47,239.05-21.08,358.92-25.99,6.52-.27,10.75-5.34,11.14-11.6,.68-10.79-1.43-27.22,9.25-33.7,4.44-2.69,8.73-2.36,13.49-2.26,11.89,.25,23.79,.88,35.67,1.32,48.54,1.79,97.07,3.58,145.61,5.37,91.02,3.36,182.04,6.58,273.06,10.07,5,.19,10.08,.21,15.01,1.11,6.92,1.26,13.51,2.9,14.9,10.89,1.01,5.77-.96,12.73-1.59,18.44-1.82,16.64-2.86,33.34-3.3,50.07-1.7,64.81,4.9,129.52,2.93,194.34-.44,14.64,22.3,14.15,22.74-.45h0Z"/><g><path class="cls-7" d="M1368.18,396.16c30.76-.61,55.93,24.32,55.48,55.08-1.64,110.83,6.9,236.56,.97,341.13-1.74,30.69-4.75,64.37-26.55,86.05-22.1,21.98-56.36,24.55-87.5,25.83-211.47,8.69-422.93,17.38-634.4,26.07-65.03,2.67-130.32,5.34-195.06-1.32-14.67-1.51-30.33-3.96-41.1-14.04-12.09-11.3-14.87-29.13-16.97-45.55-16.75-131.38-33.82-371.71-50.57-503.09l43.68-50.52,615.08-27.13,22.12,113.75,314.82-6.26Z"/><rect class="cls-8" x="1252.76" y="431.57" width="142.4" height="48.48" rx="21.28" ry="21.28" transform="translate(-8.8 26.42) rotate(-1.14)"/><path class="cls-8" d="M922.25,839.85c-168.11,9.31-336.99,31.84-502.98-2.1,1.27,11.05,2.53,21.75,3.8,31.66,2.09,16.42,4.88,34.24,16.97,45.55,10.77,10.07,26.43,12.53,41.1,14.04,64.74,6.66,130.03,4,195.06,1.32,211.47-8.69,422.93-17.38,634.4-26.06,31.14-1.28,65.4-3.86,87.5-25.83,7.05-7.01,11.99-15.36,15.7-24.38-163.91-3.85-327.4-23.28-491.53-14.19Z"/><path class="cls-11" d="M1369.05,407.52c13.81,.22,26.62,5.88,35,17.13,9.73,13.07,8.16,28.33,8.07,43.69-.21,34.42,.4,68.84,1.13,103.25,1.45,68.89,3.77,137.92,.73,206.81-1.23,27.82-.81,61.37-17.91,84.97-18.41,25.41-52.72,27.95-81.44,29.32-75.03,3.58-150.12,6.18-225.17,9.26-152.69,6.27-305.38,13.63-458.11,18.71-37.16,1.24-74.39,1.81-111.53-.09-17.63-.9-36.36-1.12-53.57-5.3-17.88-4.34-25.82-15.18-29.62-32.52-5.07-23.14-6.34-47.66-8.87-71.18-2.81-26.11-5.4-52.24-7.9-78.38-11.73-122.36-20.53-245.15-35.98-367.11-1.06,2.7-2.11,5.4-3.17,8.11,14.56-16.84,29.12-33.68,43.68-50.52-2.66,1.16-5.32,2.33-7.97,3.49,84.52-3.73,169.05-7.46,253.57-11.18,103.5-4.57,207-9.13,310.5-13.7,21.79-.96,41.83,4.25,47.58,29.22,5.63,24.49,9.62,49.47,14.42,74.14,.94,4.83,6.49,8.22,11.13,8.13,91.96-1.83,183.91-3.66,275.87-5.49,13.2-.26,26.4-.53,39.59-.79,14.63-.29,14.21-23.03-.45-22.74-91.96,1.83-183.91,3.66-275.87,5.49-13.2,.26-26.4,.53-39.59,.79,3.71,2.71,7.42,5.42,11.13,8.13-5.02-25.82-8.13-52.87-15.36-78.17-8.54-29.86-36.1-42.91-65.01-41.63-49.58,2.19-99.15,4.37-148.73,6.56-133.64,5.89-267.27,11.79-400.91,17.68-11.92,.53-21.69-1.02-30.07,8.66-11.03,12.75-22.05,25.51-33.08,38.26-2.91,3.36-7.46,7.35-9.1,11.6-3.34,8.62,1.6,24.6,2.65,33.65,13.28,115.13,22.09,230.74,33.23,346.08,2.61,27.02,5.32,54.04,8.29,81.02,2.68,24.29,3.25,51.08,10.71,74.44,9.73,30.46,34.92,39.93,64.46,43.02,38.82,4.07,77.95,4.63,116.95,3.93,158.2-2.83,316.52-12.4,474.61-18.9,79.3-3.26,158.61-6.29,237.9-9.78,28.27-1.24,59.34-3.12,83.52-19.55,24.07-16.35,34.78-43.28,38.71-71.18,9.3-65.99,5.42-134.9,4.07-201.3-.75-36.59-1.7-73.17-2.11-109.76-.19-16.99-.26-33.98-.11-50.97,.12-14.25,.16-27.3-5.98-40.47-11.08-23.73-34.56-37.2-60.31-37.61-14.65-.23-14.17,22.51,.45,22.74Z"/></g><path class="cls-1" d="M447.39,608.02c2.01,33.69,5.59,67.26,10.74,100.61,1.32,8.56,7.16,16.92,16.95,16.29,8-.52,17.71-7.74,16.29-16.95-5.15-33.35-8.73-66.92-10.74-100.61-.52-8.67-7.73-16.88-16.95-16.29-8.7,.56-16.84,7.65-16.29,16.95h0Z"/><path class="cls-1" d="M462.74,763.78c.02,.84,.03,1.68,.05,2.52-.04,2.29,.48,4.41,1.56,6.37,.71,2.05,1.89,3.81,3.54,5.28,1.54,1.59,3.34,2.7,5.42,3.33,2,1,4.14,1.44,6.43,1.3,1.47-.23,2.94-.45,4.41-.68,2.8-.85,5.21-2.32,7.25-4.42,.84-1.14,1.69-2.28,2.53-3.41,1.45-2.62,2.15-5.43,2.1-8.43-.02-.84-.03-1.68-.05-2.52,.04-2.29-.48-4.41-1.56-6.37-.71-2.05-1.89-3.81-3.54-5.28-1.54-1.59-3.34-2.7-5.42-3.33-2-1-4.14-1.44-6.43-1.3-1.47,.23-2.94,.45-4.41,.68-2.8,.85-5.21,2.32-7.25,4.42-.84,1.14-1.69,2.28-2.53,3.41-1.45,2.62-2.15,5.43-2.1,8.43h0Z"/></g><g><g><g class="cls-3"><path class="cls-1" d="M1251.62,152.93c51.35,108.06,25.37,254.27-107.57,315.11-167.9,76.84-340.03-28.93-359.53-204.84-15.08-135.97,97.28-234.59,224.45-250.35,112.71-13.96,201.04,52.51,242.66,140.08Z"/></g><path class="cls-1" d="M805.62,348.4c-12.11,8.85-22.93,19.46-32.02,31.39-2.97,3.9-5.84,8.13-6.53,12.98-1.2,8.41,4.3,16.18,9.71,22.73,10.12,12.26,20.97,23.93,32.46,34.93,5.43,5.2,11.99,10.59,19.47,9.84,4.97-.5,9.22-3.67,13.02-6.91,10.47-8.94,18.87-10.98,26.44-22.48"/><path class="cls-1" d="M779.29,373.31c-10.97-29.59-53.62,4.27-66.64,14.81-28.48,23.03-64.52,45.09-63.43,83.91,1.17,41.54,38.95,88.22,82.38,89.34,41.09,1.06,120.33-65.81,109-93.92"/><path class="cls-1" d="M971.8,166.47c-20.72,5.81-38.31,21.84-46,41.94"/></g><g><path class="cls-9" d="M1251.62,152.93C1210.01,65.35,1121.67-1.12,1008.96,12.84c-127.17,15.76-239.52,114.38-224.45,250.35,19.5,175.91,191.63,281.68,359.53,204.84,132.94-60.84,158.92-207.04,107.57-315.11Zm-198.09,246.8c-67.88,13.9-135.91-24.77-169.05-83.27-16.06-28.36-24.54-63.9-19.63-96.39,4.55-30.08,19.4-57.21,40.11-79.2,41.43-44,107.29-68.05,165.92-46.94,1.13,.41,2.13,.92,3.07,1.46,70.81,18.12,120.57,86.2,118.75,159.96-1.88,76.24-68.89,129.97-139.17,144.36Z"/><path class="cls-10" d="M1258.35,168.59c4.34,16.78,6.72,34.08,5.96,52.15-2.47,58.5-24.99,132.68-64.26,174.52-43.55,46.4-101.74,73.32-165.36,76.5-56.77,2.83-122.11-25.32-174.13-48.23,69.9,68.71,177.51,93,283.48,44.5,126.62-57.95,156.15-193.33,114.3-299.44Z"/><path class="cls-9" d="M1157.07,361.58c47.55-48.29,55.12-117.68,30.49-174.47-13.91-32.07-38.09-60.12-71.13-78.07-17-9.24-35.29-14.92-53.96-17.7,2.81,.8,5.63,1.61,8.41,2.61,1.13,.41,2.13,.92,3.07,1.46,70.81,18.12,120.57,86.2,118.75,159.96-1.88,76.24-68.89,129.97-139.17,144.36-46.17,9.45-92.38-5.45-127.67-34.34,24.89,21.87,55.59,37.08,88.3,42.26,51.34,8.13,106.44-9.04,142.91-46.08Z"/><path class="cls-1" d="M805.62,348.4c-12.11,8.85-22.93,19.46-32.02,31.39-2.97,3.9-5.84,8.13-6.53,12.98-1.2,8.41,4.3,16.18,9.71,22.73,10.12,12.26,20.97,23.93,32.46,34.93,5.43,5.2,11.99,10.59,19.47,9.84,4.97-.5,9.22-3.67,13.02-6.91,10.47-8.94,18.87-10.98,26.44-22.48"/><path class="cls-5" d="M731.6,561.36c28.6,.74,58.5-21.66,78.52-39.85,10.07-9.15,21.02-19.92,26.93-32.4,11.35-23.97-5.19-19.24-20.23-29.25-3.25-2.17-5.77-5.25-8.23-8.28-8.47-10.44-16.94-20.88-25.41-31.32-5.84-7.2-11.88-14.81-13.6-23.93-2.46-13.09,13.28-19.99,5.36-30.27-4.83-6.26-14.28-4.71-20.78-3.17-15.35,3.63-29.52,15.52-41.52,25.22-28.48,23.03-64.52,45.08-63.42,83.9,1.17,41.54,38.95,88.22,82.38,89.34Z"/><path class="cls-6" d="M694.26,415.36c22.92-19.93,48.24-36.61,73.4-53.49-4.45-.84-9.53,.09-13.5,1.03-15.35,3.63-29.52,15.52-41.52,25.22-27.05,21.88-60.85,42.9-63.25,78.21,11.3-19.67,28.42-36.67,44.86-50.97Z"/><path class="cls-6" d="M810.12,521.51c10.07-9.15,21.02-19.92,26.93-32.4,9.72-20.52-1.02-20.02-13.75-25.74-21.96,23.06-44.84,45.65-71.89,62.71-17.12,10.8-35.28,18.98-54.28,24.52,10.6,6.39,22.28,10.45,34.47,10.76,28.59,.74,58.5-21.66,78.52-39.85Z"/><path class="cls-9" d="M971.8,166.47c-20.72,5.81-38.31,21.84-46,41.94"/></g><g><path class="cls-11" d="M1241.92,158.86c37.14,79.56,29.88,179.73-30.11,246.33-65.23,72.42-179.38,96.65-269.01,59.55-88.32-36.56-146.45-127.06-148.24-222.08-1.88-99.9,73.57-178.42,164.9-207.38,55.03-17.45,115.23-18.3,168.2,6.53,51.1,23.96,89.89,66.68,114.26,117.05,6.37,13.16,25.75,1.23,19.41-11.87-23.66-48.91-61.04-91.45-108.79-117.99-49.7-27.63-106.55-34.64-162.14-24.75-101.78,18.11-198.67,92.63-215.67,198.95-16.61,103.84,38.19,214.45,128.37,267.13,92.92,54.28,216.49,42.23,299.67-25.36,88.67-72.04,105.47-197.49,58.56-297.98-6.18-13.24-25.55-1.29-19.41,11.87Z"/><path class="cls-11" d="M1176.66,190.35c25.04,59.76,13.2,129.74-37.56,172.43-51.83,43.58-127.3,45.88-183.87,10.51-55.12-34.46-90.94-103.8-72.45-168.56,16.17-56.63,74.81-95,130.95-102.59,69.79-9.43,135.27,26.59,164.13,90.9,5.97,13.31,25.34,1.35,19.41-11.87-29.36-65.43-95.62-105.67-167.07-103.16-65.23,2.29-132.94,39.43-161.42,99.84-32.68,69.32-2.93,153.41,54.2,200.09,58.49,47.79,140.52,57.05,206.66,18.99,74.3-42.76,101.47-135.19,68.84-213.06-5.59-13.34-27.48-7.04-21.81,6.48Z"/><path class="cls-11" d="M799.68,338.69c-8.64,6.4-16.84,13.4-24.19,21.26-6.52,6.97-13.72,14.87-17.47,23.74-9.24,21.87,11.02,40.96,24.47,55.65,6.83,7.46,13.82,14.99,21.44,21.66,8.21,7.2,18.59,12.86,29.84,9.85,9.25-2.48,15.97-9.84,23.71-15.05,8.18-5.5,14.99-11.22,20.61-19.4,3.48-5.06,.62-12.68-4.39-15.48-5.79-3.23-11.99-.69-15.48,4.39-3.3,4.8-7.86,7.89-12.61,11.08-2.85,1.92-5.65,3.88-8.35,6.01-2.47,1.95-5.21,4.96-8.21,6.1-5.02,1.91-10.26-4.67-13.44-7.74-5.97-5.76-11.75-11.72-17.35-17.84-5.23-5.71-10.65-11.48-15.2-17.76-3.82-5.27-6.31-9.42-2.71-15.32,7.53-12.35,19.69-23.24,31.21-31.77,4.93-3.65,7.18-10.07,3.77-15.64-2.99-4.88-10.68-7.45-15.64-3.77h0Z"/><path class="cls-11" d="M790.19,370.07c-16.07-38.67-59.06-11.06-80.91,6.28-30.53,24.23-70.74,49.55-71.45,93.16-.66,40.58,28.75,82.15,65.93,97.22,34.27,13.89,67.37-1.32,95.39-21.77,15.51-11.32,30.02-24.37,41.29-40,8.13-11.28,16.16-26.55,11.07-40.75-4.91-13.71-26.76-7.35-21.81,6.48,.96,2.69,1.05,3.11-.14,7.1-1.4,4.69-4.08,9.03-6.84,13.05-7.29,10.63-17.01,19.89-26.89,28.09-17.42,14.46-43.01,32.88-67,30.95-32.11-2.58-58.01-33.15-65.9-62.59-9.44-35.25,15.54-58.07,40.99-77.94,7.05-5.51,57.37-49.86,64.46-32.79,5.56,13.37,27.44,7.06,21.81-6.48h0Z"/><path class="cls-1" d="M968.56,155.57c-12.29,3.52-23.42,10.05-32.85,18.63-9.5,8.66-16.31,19.5-20.94,31.4-.99,2.56-.04,6.51,1.32,8.74,1.43,2.33,4.18,4.53,6.9,5.09,2.92,.61,6.19,.4,8.74-1.32,2.62-1.76,3.95-3.98,5.09-6.9-1.34,3.43,.44-.94,.81-1.73,.49-1.05,1.01-2.08,1.56-3.1,1.2-2.24,2.52-4.41,3.96-6.51,.39-.57,.82-1.12,1.2-1.7-1.82,2.69-.48,.67-.05,.13,.72-.91,1.46-1.79,2.22-2.66,1.75-2,3.62-3.9,5.59-5.69,.94-.86,1.96-1.63,2.89-2.5-.72,.68-1.73,1.36-.36,.32,.55-.42,1.11-.83,1.67-1.24,2.07-1.48,4.21-2.86,6.42-4.11,1.11-.63,2.23-1.22,3.37-1.79,.58-.29,1.39-.49,1.88-.89-.67,.55-2.19,.94-.47,.23,2.46-1.02,4.97-1.88,7.53-2.61,5.72-1.64,9.66-8.38,7.66-14.15-2.03-5.87-8.02-9.42-14.15-7.66h0Z"/><path class="cls-1" d="M913.78,262.45c14.63-.29,14.21-23.03-.45-22.74-14.63,.29-14.21,23.03,.45,22.74h0Z"/></g></g></g></g></g></g></g></svg>